<?xml version="1.0" encoding="iso-8859-1"?>
<!-- Generator: Adobe Illustrator 19.0.0, SVG Export Plug-In . SVG Version: 6.00 Build 0)  -->
<svg version="1.1" id="Capa_1" xmlns="http://www.w3.org/2000/svg" xmlns:xlink="http://www.w3.org/1999/xlink" x="0px" y="0px"
	 viewBox="0 0 368 368" style="enable-background:new 0 0 368 368;" xml:space="preserve">
<path style="fill:#CCE4FF;" d="M360,152v160c0,26.48-21.52,48-48,48H56c-26.48,0-48-21.52-48-48V152h85.52
	c-3.6,10-5.52,20.8-5.52,32c0,53.04,42.96,96,96,96s96-42.96,96-96c0-11.2-1.92-22-5.52-32H360z"/>
<g>
	<path style="fill:#007AFF;" d="M312,0H56C25.128,0,0,25.12,0,56v96v160c0,30.88,25.128,56,56,56h256c30.872,0,56-25.12,56-56V152
		V56C368,25.12,342.872,0,312,0z M352,312c0,22.056-17.944,40-40,40H56c-22.056,0-40-17.944-40-40V160h66.88
		c-1.864,7.792-2.88,15.816-2.88,24c0,57.344,46.656,104,104,104s104-46.656,104-104c0-8.184-1.016-16.208-2.872-24H352V312z
		 M266.928,154.656c0.008,0.016,0.016,0.032,0.024,0.056C270.304,164.016,272,173.872,272,184c0,48.52-39.48,88-88,88
		s-88-39.48-88-88c0-10.128,1.696-19.984,5.072-29.344C113.416,119.568,146.744,96,184,96S254.584,119.568,266.928,154.656z
		 M352,144h-72.096c-16-38.488-53.8-64-95.904-64c-42.128,0-79.936,25.528-95.904,64H16V56c0-22.056,17.944-40,40-40h256
		c22.056,0,40,17.944,40,40V144z"/>
	<path style="fill:#007AFF;" d="M184,128c-30.872,0-56,25.12-56,56s25.128,56,56,56s56-25.12,56-56S214.872,128,184,128z M184,224
		c-22.056,0-40-17.944-40-40s17.944-40,40-40s40,17.944,40,40S206.056,224,184,224z"/>
	<path style="fill:#007AFF;" d="M312,48h-24c-4.424,0-8,3.584-8,8v24c0,4.416,3.576,8,8,8h24c4.424,0,8-3.584,8-8V56
		C320,51.584,316.424,48,312,48z M304,72h-8v-8h8V72z"/>
</g>
<g>
</g>
<g>
</g>
<g>
</g>
<g>
</g>
<g>
</g>
<g>
</g>
<g>
</g>
<g>
</g>
<g>
</g>
<g>
</g>
<g>
</g>
<g>
</g>
<g>
</g>
<g>
</g>
<g>
</g>
</svg>
